#!OML:ASF I:\Actors\actors\Patient Classification 2\Patient 1\Session 1\actor1.ASF
:FULLY-SPECIFIED
:DEGREES
953
root -0.464113 18.8781 6.22201 7.62425 7.02374 -2.39365
lowerback 15.9705 3.64123 0.778458
upperback -0.439268 4.94106 -0.38318
thorax -9.33666 2.31621 -2.01929
lowerneck -8.35858 -5.81285 -4.52808
upperneck 3.78392 -6.94257 -5.06331
head 2.6362 -3.69054 -1.19095
rclavicle -5.39079e-014 6.06293e-015
rhumerus 28.2988 13.1519 -62.6084
rradius 130.062
rwrist -17.9217
rhand -29.1354 -38.7506
rfingers 7.12502
rthumb -2.48249 -68.7159
lclavicle -5.39079e-014 6.06293e-015
lhumerus -51.1157 -27.5449 103.748
lradius 111.815
lwrist -3.12136
lhand -11.7398 -34.8532
lfingers 7.12502
lthumb 14.3077 -5.36611
rfemur 0 0 0
rtibia 0
rfoot 0 0
rtoes 0
lfemur -15.4638 -5.33268 -14.4865
ltibia 26.8493
lfoot -19.7689 9.56355
ltoes -55.4316
954
root -0.458093 18.8679 6.27165 7.11631 6.70678 -2.42696
lowerback 15.3283 3.67711 0.31327
upperback -0.536352 4.90166 -0.401232
thorax -9.11808 2.32544 -1.7271
lowerneck -8.94583 -6.32246 -5.26455
upperneck 5.27321 -7.4604 -4.392
head 3.31827 -3.98401 -0.95092
rclavicle -6.99722e-014 -2.38542e-015
rhumerus 26.5587 12.9666 -64.4621
rradius 129.877
rwrist -20.6072
rhand -27.5009 -38.2997
rfingers 7.12502
rthumb -0.903852 -68.2775
lclavicle -6.99722e-014 -2.38542e-015
lhumerus -51.0306 -27.2964 103.917
lradius 111.751
lwrist -3.12024
lhand -11.7164 -34.8747
lfingers 7.12502
lthumb 14.3303 -5.38926
rfemur 0 0 0
rtibia 0
rfoot 0 0
rtoes 0
lfemur -14.6301 -5.45157 -14.5543
ltibia 26.8343
lfoot -20.145 9.80994
ltoes -55.3265
955
root -0.453835 18.8574 6.31835 6.61469 6.41487 -2.46903
lowerback 15.0629 3.73709 0.254855
upperback -0.900711 4.94864 -0.689228
thorax -9.34362 2.3392 -2.01184
lowerneck -9.29122 -6.9426 -6.06282
upperneck 6.90736 -8.15783 -3.51425
head 4.05101 -4.35537 -0.644199
rclavicle 1.9133e-014 5.76476e-015
rhumerus 24.1609 12.723 -66.6792
rradius 129.806
rwrist -22.9049
rhand -26.083 -37.6972
rfingers 7.12502
rthumb 0.465566 -67.6764
lclavicle 1.9133e-014 5.76476e-015
lhumerus -51.4981 -27.4411 104.104
lradius 111.786
lwrist -3.08011
lhand -11.6896 -34.9048
lfingers 7.12502
lthumb 14.3561 -5.4212
rfemur 0 0 0
rtibia 0
rfoot 0 0
rtoes 0
lfemur -13.8333 -5.43604 -14.6092
ltibia 26.8049
lfoot -20.4308 10
ltoes -55.4208
956
root -0.452534 18.8468 6.36242 6.16182 6.15358 -2.50223
lowerback 14.3192 3.73272 -0.321309
upperback -1.00161 4.85116 -0.641661
thorax -9.08567 2.32903 -1.5675
lowerneck -9.57295 -7.43923 -6.9346
upperneck 8.46033 -8.68896 -2.87824
head 4.27107 -4.65265 -0.357418
rclavicle -1.00883e-014 -1.94809e-014
rhumerus 22.4218 12.7324 -68.512
rradius 129.735
rwrist -25.195
rhand -24.8779 -37.2808
rfingers 7.12502
rthumb 1.62948 -67.2543
lclavicle -1.00883e-014 -1.94809e-014
lhumerus -51.3985 -27.0805 104.332
lradius 111.763
lwrist -3.07556
lhand -11.7669 -34.8716
lfingers 7.12502
lthumb 14.2816 -5.38272
rfemur 0 0 0
rtibia 0
rfoot 0 0
rtoes 0
lfemur -13.103 -5.40738 -14.6583
ltibia 26.7565
lfoot -20.6612 10.151
ltoes -55.4999
957
root -0.452912 18.8353 6.4054 5.75943 5.90116 -2.52378
lowerback 13.7322 3.73602 -0.625589
upperback -1.23143 4.79891 -0.784227
thorax -9.01488 2.31812 -1.50686
lowerneck -9.8173 -7.9747 -7.72198
upperneck 9.76087 -9.30215 -2.22617
head 4.79569 -4.97492 -0.134308
rclavicle -1.18277e-014 1.51076e-014
rhumerus 20.3971 12.4306 -70.4934
rradius 129.73
rwrist -27.2736
rhand -23.7078 -36.9723
rfingers 7.12502
rthumb 2.75958 -66.9342
lclavicle -1.18277e-014 1.51076e-014
lhumerus -51.5289 -27.0131 104.476
lradius 111.757
lwrist -3.00505
lhand -11.9212 -34.7699
lfingers 7.12502
lthumb 14.1329 -5.27061
rfemur 0 0 0
rtibia 0
rfoot 0 0
rtoes 0
lfemur -12.4102 -5.44287 -14.7057
ltibia 26.6956
lfoot -20.9347 10.2165
ltoes -55.3555
958
root -0.452383 18.8238 6.44762 5.36759 5.61343 -2.49856
lowerback 13.109 3.72129 -0.934704
upperback -1.43475 4.72203 -0.971578
thorax -8.88984 2.2952 -1.48233
lowerneck -10.0554 -8.4793 -8.50854
upperneck 10.9402 -9.87985 -1.64113
head 5.29026 -5.27797 0.0684006
rclavicle 2.26615e-014 -1.51076e-014
rhumerus 18.4121 11.9397 -72.4439
rradius 129.733
rwrist -29.3332
rhand -22.4483 -36.5681
rfingers 7.12502
rthumb 3.97584 -66.5107
lclavicle 2.26615e-014 -1.51076e-014
lhumerus -51.581 -26.918 104.476
lradius 111.732
lwrist -2.93748
lhand -11.8889 -34.6215
lfingers 7.12502
lthumb 14.164 -5.12436
rfemur 0 0 0
rtibia 0
rfoot 0 0
rtoes 0
lfemur -11.7085 -5.55267 -14.8195
ltibia 26.631
lfoot -21.2634 10.3079
ltoes -55.0877
959
root -0.45156 18.8137 6.48679 4.93339 5.25565 -2.49309
lowerback 12.8538 3.75337 -1.02698
upperback -1.84138 4.72442 -1.3054
thorax -9.16537 2.28951 -1.78922
lowerneck -10.0385 -8.971 -9.23441
upperneck 12.1213 -10.4933 -1.01958
head 5.75533 -5.59162 0.276466
rclavicle -3.66758e-014 5.56597e-015
rhumerus 15.9329 11.1284 -74.6106
rradius 129.846
rwrist -31.3134
rhand -21.1356 -36.31
rfingers 7.12502
rthumb 5.24338 -66.2252
lclavicle -3.66758e-014 5.56597e-015
lhumerus -52.095 -26.9986 104.501
lradius 111.757
lwrist -2.88867
lhand -11.736 -34.4438
lfingers 7.12502
lthumb 14.3114 -4.95698
rfemur 0 0 0
rtibia 0
rfoot 0 0
rtoes 0
lfemur -10.9821 -5.55701 -14.9281
ltibia 26.5764
lfoot -21.5652 10.5493
ltoes -54.974
960
root -0.450892 18.8033 6.52356 4.47769 4.85427 -2.58339
lowerback 12.1714 3.72991 -1.49686
upperback -1.93087 4.63682 -1.27898
thorax -8.91204 2.27754 -1.43567
lowerneck -10.1707 -9.30819 -9.76639
upperneck 12.8693 -10.8737 -0.775676
head 6.07637 -5.79864 0.363679
rclavicle -5.19822e-014 -7.15625e-015
rhumerus 14.1162 10.472 -76.4107
rradius 129.867
rwrist -33.2762
rhand -19.7506 -36.2218
rfingers 7.12502
rthumb 6.58055 -66.0996
lclavicle -5.19822e-014 -7.15625e-015
lhumerus -51.9979 -26.6327 104.532
lradius 111.72
lwrist -2.89953
lhand -11.6391 -34.383
lfingers 7.12502
lthumb 14.4047 -4.90285
rfemur 0 0 0
rtibia 0
rfoot 0 0
rtoes 0
lfemur -10.2508 -5.51951 -14.9329
ltibia 26.539
lfoot -21.8748 10.9116
ltoes -55.009
961
root -0.448907 18.7909 6.55891 4.01974 4.44305 -2.66658
lowerback 12.138 3.79022 -1.34454
upperback -2.41704 4.70503 -1.65432
thorax -9.37814 2.2871 -1.95755
lowerneck -9.97065 -9.73834 -10.3203
upperneck 13.8871 -11.4599 -0.270335
head 6.45974 -6.09423 0.519985
rclavicle 6.95746e-016 3.18055e-015
rhumerus 11.4891 9.21299 -78.4873
rradius 129.959
rwrist -35.1587
rhand -18.4764 -35.9894
rfingers 7.12502
rthumb 7.81056 -65.8251
lclavicle 6.95746e-016 3.18055e-015
lhumerus -52.7193 -26.8747 104.623
lradius 111.76
lwrist -2.76722
lhand -11.5416 -34.3987
lfingers 7.12502
lthumb 14.4987 -4.92528
rfemur 0 0 0
rtibia 0
rfoot 0 0
rtoes 0
lfemur -9.51998 -5.37992 -14.9426
ltibia 26.518
lfoot -22.1641 11.0974
ltoes -55.0066
962
root -0.44795 18.7778 6.59122 3.56047 4.02301 -2.7064
lowerback 11.8774 3.82086 -1.51128
upperback -2.71861 4.70688 -1.84438
thorax -9.5553 2.29032 -2.0652
lowerneck -9.89858 -10.0895 -10.9244
upperneck 14.7268 -11.913 0.147789
head 6.80756 -6.3291 0.666151
rclavicle -5.86415e-014 1.11319e-014
rhumerus 9.28614 8.07365 -80.2502
rradius 130.009
rwrist -37.3405
rhand -17.4422 -36.0987
rfingers 7.12502
rthumb 8.80861 -65.8949
lclavicle -5.86415e-014 1.11319e-014
lhumerus -53.0239 -26.849 104.715
lradius 111.729
lwrist -2.63396
lhand -11.4856 -34.3828
lfingers 7.12502
lthumb 14.5527 -4.9133
rfemur 0 0 0
rtibia 0
rfoot 0 0
rtoes 0
lfemur -8.79968 -5.11911 -14.9859
ltibia 26.5054
lfoot -22.4014 11.1471
ltoes -55.011
963
root -0.449356 18.7661 6.62154 3.12781 3.60757 -2.74677
lowerback 11.4238 3.82341 -1.85475
upperback -2.89391 4.66275 -1.91574
thorax -9.50713 2.28876 -1.91655
lowerneck -9.92427 -10.3659 -11.3665
upperneck 15.377 -12.2481 0.346428
head 7.08575 -6.51096 0.732101
rclavicle 3.92103e-014 -3.18055e-015
rhumerus 7.41329 6.93461 -81.8679
rradius 129.982
rwrist -39.7923
rhand -16.4695 -36.3382
rfingers 7.12502
rthumb 9.74723 -66.0926
lclavicle 3.92103e-014 -3.18055e-015
lhumerus -53.08 -26.6931 104.764
lradius 111.695
lwrist -2.52156
lhand -11.481 -34.3166
lfingers 7.12502
lthumb 14.5571 -4.84742
rfemur 0 0 0
rtibia 0
rfoot 0 0
rtoes 0
lfemur -8.1032 -4.99601 -15.0244
ltibia 26.4806
lfoot -22.6857 11.3035
ltoes -54.9917
964
root -0.451074 18.7566 6.64932 2.80207 3.237 -2.77139
lowerback 10.9062 3.81073 -2.1714
upperback -3.06867 4.6052 -2.01277
thorax -9.41595 2.27915 -1.80292
lowerneck -10.0264 -10.6101 -11.7072
upperneck 15.9721 -12.5392 0.490543
head 7.34957 -6.66881 0.767554
rclavicle -4.03533e-014 -9.54166e-015
rhumerus 5.71362 5.74631 -83.2709
rradius 129.852
rwrist -42.2364
rhand -15.6475 -36.2965
rfingers 7.12502
rthumb 10.5402 -66.0122
lclavicle -4.03533e-014 -9.54166e-015
lhumerus -53.1486 -26.6573 104.759
lradius 111.705
lwrist -2.35718
lhand -11.4525 -34.2162
lfingers 7.12502
lthumb 14.5846 -4.74893
rfemur 0 0 0
rtibia 0
rfoot 0 0
rtoes 0
lfemur -7.52931 -5.0625 -15.0798
ltibia 26.4432
lfoot -23.0223 11.5406
ltoes -54.8739
965
root -0.451043 18.7479 6.67367 2.55634 2.89634 -2.76888
lowerback 10.3838 3.7918 -2.46173
upperback -3.24484 4.54368 -2.1412
thorax -9.318 2.2651 -1.73683
lowerneck -10.2137 -10.8447 -11.9709
upperneck 16.5642 -12.8196 0.624512
head 7.62323 -6.81667 0.784179
rclavicle -5.02428e-014 -7.95139e-015
rhumerus 4.10514 4.65561 -84.5443
rradius 129.701
rwrist -44.2578
rhand -15.0092 -36.3804
rfingers 7.12502
rthumb 11.1559 -66.0638
lclavicle -5.02428e-014 -7.95139e-015
lhumerus -53.1904 -26.7108 104.728
lradius 111.707
lwrist -2.18952
lhand -11.4331 -34.1073
lfingers 7.12502
lthumb 14.6032 -4.64138
rfemur 0 0 0
rtibia 0
rfoot 0 0
rtoes 0
lfemur -7.062 -5.23917 -15.1773
ltibia 26.4069
lfoot -23.3703 11.8568
ltoes -54.7394
966
root -0.449631 18.7383 6.69559 2.29245 2.55055 -2.81904
lowerback 9.88591 3.78304 -2.69006
upperback -3.41143 4.50803 -2.25164
thorax -9.21944 2.2604 -1.69243
lowerneck -10.2809 -11.0474 -12.1819
upperneck 17.0639 -13.088 0.780346
head 7.84481 -6.953 0.810175
rclavicle 6.54995e-014 1.59028e-015
rhumerus 2.50185 3.53939 -85.7429
rradius 129.546
rwrist -45.8383
rhand -14.3794 -36.537
rfingers 7.12502
rthumb 11.7632 -66.1867
lclavicle 6.54995e-014 1.59028e-015
lhumerus -53.2453 -26.771 104.733
lradius 111.696
lwrist -2.10173
lhand -11.3724 -33.9646
lfingers 7.12502
lthumb 14.6617 -4.50292
rfemur 0 0 0
rtibia 0
rfoot 0 0
rtoes 0
lfemur -6.59227 -5.35994 -15.2239
ltibia 26.3788
lfoot -23.7043 12.1799
ltoes -54.6799
967
root -0.448794 18.7276 6.71548 2.03021 2.2102 -2.93178
lowerback 9.38132 3.78312 -2.85921
upperback -3.56007 4.49834 -2.32377
thorax -9.0951 2.26617 -1.64327
lowerneck -10.1819 -11.2253 -12.563
upperneck 17.402 -13.3725 1.21914
head 8.01882 -7.08128 0.961695
rclavicle -3.52781e-014 4.92986e-014
rhumerus 2.16833 2.84029 -85.3449
rradius 128.907
rwrist -47.9561
rhand -14.6135 -36.8978
rfingers 7.12502
rthumb 11.5375 -66.5602
lclavicle -3.52781e-014 4.92986e-014
lhumerus -53.3302 -26.8485 104.796
lradius 111.691
lwrist -2.10387
lhand -11.3347 -33.8495
lfingers 7.12502
lthumb 14.698 -4.39049
rfemur 0 0 0
rtibia 0
rfoot 0 0
rtoes 0
lfemur -6.14148 -5.3953 -15.186
ltibia 26.3636
lfoot -24.0245 12.4466
ltoes -54.7027
968
root -0.447155 18.7155 6.73505 1.70193 1.81772 -3.04228
lowerback 8.93828 3.80339 -3.04054
upperback -3.63647 4.51826 -2.3535
thorax -8.93232 2.28775 -1.54799
lowerneck -10.1222 -11.3889 -12.883
upperneck 17.624 -13.6247 1.56148
head 8.14975 -7.196 1.07885
rclavicle 2.74447e-014 -1.43125e-014
rhumerus 1.29901 2.02738 -85.6585
rradius 128.599
rwrist -49.7693
rhand -14.1905 -37.0812
rfingers 7.12502
rthumb 11.9454 -66.7203
lclavicle 2.74447e-014 -1.43125e-014
lhumerus -53.3259 -26.9157 104.882
lradius 111.673
lwrist -2.13361
lhand -11.4426 -33.8539
lfingers 7.12502
lthumb 14.5941 -4.38736
rfemur 0 0 0
rtibia 0
rfoot 0 0
rtoes 0
lfemur -5.59966 -5.44872 -15.1629
ltibia 26.3474
lfoot -24.3725 12.7421
ltoes -54.7334
